<svg xmlns="http://www.w3.org/2000/svg" width="35.69" height="40.789" viewBox="0 0 35.69 40.789">
  <path id="user-astronaut-solid" d="M5.1,17.845H6.174a12.729,12.729,0,0,0,23.342,0h1.075a1.278,1.278,0,0,0,1.275-1.275V8.923a1.278,1.278,0,0,0-1.275-1.275H29.516a12.729,12.729,0,0,0-23.342,0H5.1A1.278,1.278,0,0,0,3.824,8.923v7.648A1.278,1.278,0,0,0,5.1,17.845Zm3.187-7.011c0-1.761,1.713-3.187,3.824-3.187H23.581c2.111,0,3.824,1.426,3.824,3.187v1.912a7.65,7.65,0,0,1-7.648,7.648H15.933a7.65,7.65,0,0,1-7.648-7.648Zm5.736,5.736.956-2.868,2.868-.956-2.868-.956-.956-2.868-.956,2.868-2.868.956,2.868.956ZM26.1,25.6a15.19,15.19,0,0,1-16.507,0A10.677,10.677,0,0,0,0,36.2v.765a3.825,3.825,0,0,0,3.824,3.824H10.2v-5.1a2.547,2.547,0,0,1,2.549-2.549h10.2a2.547,2.547,0,0,1,2.549,2.549v5.1h6.373a3.825,3.825,0,0,0,3.824-3.824V36.2A10.677,10.677,0,0,0,26.1,25.6ZM21.669,35.69a1.275,1.275,0,1,0,1.275,1.275A1.278,1.278,0,0,0,21.669,35.69Zm-7.648,0a1.278,1.278,0,0,0-1.275,1.275v3.824H15.3V36.965A1.278,1.278,0,0,0,14.021,35.69Z" transform="translate(0)" fill="#fff"/>
</svg>
