<svg xmlns="http://www.w3.org/2000/svg" width="40.099" height="41.935" viewBox="0 0 40.099 41.935">
  <g id="_15" data-name="15" transform="translate(0.667 0.667)">
    <path id="Path_36" data-name="Path 36" d="M1851.572,54.338l15.937,2.788a.735.735,0,0,1,.073-.154l-14.5-12.135a.714.714,0,0,1-.23.146.692.692,0,0,1-.27.037l-1.507,8.609A.75.75,0,0,1,1851.572,54.338Z" transform="translate(-1829.718 -44.011)" fill="none" stroke="#fff" stroke-miterlimit="10" stroke-width="1.276"/>
    <path id="Path_37" data-name="Path 37" d="M1862.543,85.224l-6.7-5.612a.7.7,0,0,1-.232.147.72.72,0,0,1-.627-.069L1844.6,92.1a.685.685,0,0,1,.1.141l17.755-6.488A.716.716,0,0,1,1862.543,85.224Z" transform="translate(-1828.184 -52.243)" fill="none" stroke="#fff" stroke-miterlimit="10" stroke-width="1.276"/>
    <path id="Path_38" data-name="Path 38" d="M1847.068,58.052l-10.386,12.409a.719.719,0,0,1,.183.5l15.94,2.788a.718.718,0,0,1,.343-.409l-5.553-15.2A.717.717,0,0,1,1847.068,58.052Z" transform="translate(-1826.31 -47.139)" fill="none" stroke="#fff" stroke-miterlimit="10" stroke-width="1.276"/>
    <path id="Path_39" data-name="Path 39" d="M1834.6,69.279l10.386-12.409a.65.65,0,0,1-.183-.5l-15.769-2.76a.714.714,0,0,1-.432.456c-.017.006-.034.005-.05.011l5.522,15.111A.715.715,0,0,1,1834.6,69.279Z" transform="translate(-1824.386 -46.087)" fill="none" stroke="#fff" stroke-miterlimit="10" stroke-width="1.276"/>
    <path id="Path_40" data-name="Path 40" d="M1832.75,69.4l-5.534-15.149a.681.681,0,0,1-.189-.024l-3.26,18.614a.726.726,0,0,1,.411.343l8.208-3A.722.722,0,0,1,1832.75,69.4Z" transform="translate(-1823.253 -46.234)" fill="none" stroke="#fff" stroke-miterlimit="10" stroke-width="1.276"/>
    <path id="Path_41" data-name="Path 41" d="M1832.575,75.384l-8.208,3a.717.717,0,0,1-.092.527l14.5,12.133a.7.7,0,0,1,.141-.1l-5.552-15.2A.721.721,0,0,1,1832.575,75.384Z" transform="translate(-1823.373 -51.242)" fill="none" stroke="#fff" stroke-miterlimit="10" stroke-width="1.276"/>
    <path id="Path_42" data-name="Path 42" d="M1845.423,53.573a.706.706,0,0,1,.272-.037l1.507-8.611a.709.709,0,0,1-.41-.342l-17.6,6.433a.73.73,0,0,1,.039.256l15.763,2.759A.716.716,0,0,1,1845.423,53.573Z" transform="translate(-1824.536 -43.951)" fill="none" stroke="#fff" stroke-miterlimit="10" stroke-width="1.276"/>
    <path id="Path_43" data-name="Path 43" d="M1851.229,57.955l5.553,15.2a.711.711,0,0,1,.525.092l10.386-12.408a.7.7,0,0,1-.146-.232.682.682,0,0,1-.037-.271l-15.94-2.79A.719.719,0,0,1,1851.229,57.955Z" transform="translate(-1829.754 -47.019)" fill="none" stroke="#fff" stroke-miterlimit="10" stroke-width="1.276"/>
    <path id="Path_44" data-name="Path 44" d="M1859.543,74.668a.719.719,0,0,1-.069.625l6.7,5.612a.648.648,0,0,1,.5-.184l3.26-18.621a.706.706,0,0,1-.156-.072L1859.4,74.438A.7.7,0,0,1,1859.543,74.668Z" transform="translate(-1831.687 -48.081)" fill="none" stroke="#fff" stroke-miterlimit="10" stroke-width="1.276"/>
    <path id="Path_45" data-name="Path 45" d="M1852.746,78.289a.708.708,0,0,1-.037-.271l-15.939-2.788a.714.714,0,0,1-.344.408l5.554,15.2a.716.716,0,0,1,.526.092l10.386-12.409A.714.714,0,0,1,1852.746,78.289Z" transform="translate(-1826.25 -51.206)" fill="none" stroke="#fff" stroke-miterlimit="10" stroke-width="1.276"/>
    <path id="Path_46" data-name="Path 46" d="M1844.081,96.407a.276.276,0,0,0-.086-.122.292.292,0,0,0-.289-.053.272.272,0,0,0-.122.086.292.292,0,1,0,.5.089Z" transform="translate(-1827.927 -56.173)" fill="none" stroke="#fff" stroke-miterlimit="10" stroke-width="1.276"/>
    <path id="Path_47" data-name="Path 47" d="M1868.866,87.081a.284.284,0,0,0-.149.013.28.28,0,0,0-.122.086.291.291,0,1,0,.273-.1Z" transform="translate(-1833.848 -54.01)" fill="none" stroke="#fff" stroke-miterlimit="10" stroke-width="1.276"/>
    <path id="Path_48" data-name="Path 48" d="M1858.832,79.01a.288.288,0,0,0,.05-.287.272.272,0,0,0-.085-.121.29.29,0,0,0-.288-.053.287.287,0,0,0-.188.223.292.292,0,0,0,.388.326.286.286,0,0,0,.122-.086Z" transform="translate(-1831.432 -51.987)" fill="none" stroke="#fff" stroke-miterlimit="10" stroke-width="1.276"/>
    <path id="Path_49" data-name="Path 49" d="M1873.185,60.951a.3.3,0,0,0-.064.137.287.287,0,0,0,.1.272.284.284,0,0,0,.137.064.289.289,0,0,0,.151-.013.292.292,0,1,0-.2-.548.289.289,0,0,0-.122.085Z" transform="translate(-1834.935 -47.801)" fill="none" stroke="#fff" stroke-miterlimit="10" stroke-width="1.276"/>
    <path id="Path_50" data-name="Path 50" d="M1836.179,74.9a.285.285,0,0,0-.012-.152.28.28,0,0,0-.086-.121.291.291,0,1,0,.1.273Z" transform="translate(-1826.054 -51.046)" fill="none" stroke="#fff" stroke-miterlimit="10" stroke-width="1.276"/>
    <path id="Path_51" data-name="Path 51" d="M1823.61,79.6a.292.292,0,0,0-.176-.476.288.288,0,0,0-.15.015.292.292,0,1,0,.325.461Z" transform="translate(-1823.094 -52.127)" fill="none" stroke="#fff" stroke-miterlimit="10" stroke-width="1.276"/>
    <path id="Path_52" data-name="Path 52" d="M1850.5,57.384a.29.29,0,0,0,.475-.171.274.274,0,0,0-.013-.151.29.29,0,0,0-.222-.188.286.286,0,0,0-.152.012.294.294,0,0,0-.088.5Z" transform="translate(-1829.558 -46.859)" fill="none" stroke="#fff" stroke-miterlimit="10" stroke-width="1.276"/>
    <path id="Path_53" data-name="Path 53" d="M1828.054,53.477a.281.281,0,0,0,.161.04.274.274,0,0,0,.088-.018.29.29,0,0,0,.185-.221v-.006a.273.273,0,0,0-.013-.146.3.3,0,0,0-.022-.047.29.29,0,0,0-.352-.127.293.293,0,0,0-.175.376A.279.279,0,0,0,1828.054,53.477Z" transform="translate(-1824.234 -45.928)" fill="none" stroke="#fff" stroke-miterlimit="10" stroke-width="1.276"/>
    <path id="Path_54" data-name="Path 54" d="M1852.936,44.333a.286.286,0,0,0,.153-.011.278.278,0,0,0,.12-.085l0,0a.285.285,0,0,0,.05-.285.292.292,0,1,0-.549.2A.286.286,0,0,0,1852.936,44.333Z" transform="translate(-1830.101 -43.755)" fill="none" stroke="#fff" stroke-miterlimit="10" stroke-width="1.276"/>
  </g>
</svg>
