<?xml version="1.0" encoding="utf-8"?>
<!-- Generator: Adobe Illustrator 23.0.6, SVG Export Plug-In . SVG Version: 6.00 Build 0)  -->
<svg version="1.1" id="Layer_1" focusable="false" xmlns="http://www.w3.org/2000/svg" xmlns:xlink="http://www.w3.org/1999/xlink"
	 x="0px" y="0px" viewBox="0 0 512 512" style="enable-background:new 0 0 512 512;" xml:space="preserve">
<style type="text/css">
	.st0{fill:#EB3323;}
</style>
<path class="st0" d="M164.1,148.1H12c-6.6,0-12-5.4-12-12v-80c0-19.9,16.1-36,36-36h104c19.9,0,36,16.1,36,36v80
	C176.1,142.7,170.8,148,164.1,148.1L164.1,148.1z M512,136.1V56c0-19.9-16.1-36-36-36H372c-19.9,0-36,16.1-36,36v80
	c0,6.6,5.4,12,12,12h152C506.6,148.1,511.9,142.8,512,136.1L512,136.1z M348,180.1c-6.6,0-12,5.4-12,12v52c0,128.1-160,127.9-160,0
	v-52c0-6.6-5.4-12-12-12H12.1c-6.6,0-12,5.4-12,12v0.1c0.1,21.4,0.6,40.3,0,53.3c0,150.6,136.2,246.6,256.8,246.6s255-96,255-246.7
	c-0.6-12.8-0.2-33,0-53.2c0.1-6.6-5.3-12-11.9-12.1h-0.1L348,180.1z"/>
</svg>
