<svg width="826" height="731" viewBox="0 0 826 731" fill="none" xmlns="http://www.w3.org/2000/svg">
<path d="M396.912 730.242C386.495 729.825 383.977 581.727 391.288 399.462C398.598 217.196 412.969 69.7758 423.386 70.1936L423.386 70.1936" stroke="#2F363D" stroke-width="0.5"/>
<path d="M346.154 724.249C298.428 714.823 288.387 562.106 323.73 383.151C359.074 204.195 426.418 66.7614 474.145 76.1873L474.145 76.1873" stroke="#2F363D" stroke-width="0.5"/>
<path d="M290.971 708.257C213.04 678.106 203.226 515.75 269.045 345.626C334.865 175.503 451.395 62.0282 529.326 92.1789L529.326 92.1789" stroke="#2F363D" stroke-width="0.5"/>
<path d="M228.244 675.903C134.114 613.793 139.25 440.014 239.712 287.759C340.175 135.504 497.924 62.4239 592.054 124.533L592.054 124.533" stroke="#2F363D" stroke-width="0.5"/>
<path d="M158.532 614.18C71.5306 511.867 113.655 333.129 252.618 214.962C391.582 96.7949 574.767 83.9434 661.768 186.256L661.768 186.256" stroke="#2F363D" stroke-width="0.5"/>
<path d="M97.3342 506.228C50.2552 367.307 152.144 207.228 324.906 148.68C497.667 90.1333 675.885 155.287 722.964 294.208L722.964 294.208" stroke="#2F363D" stroke-width="0.5"/>
<path d="M82.2871 360.246C100.327 212.279 261.741 110.223 442.813 132.299C623.885 154.375 756.051 292.222 738.011 440.19" stroke="#2F363D" stroke-width="0.5"/>
<path d="M126.967 230.22C199.685 109.086 385.422 86.9986 541.817 180.885C698.213 274.772 766.049 449.082 693.33 570.216" stroke="#2F363D" stroke-width="0.5"/>
<path d="M196.184 148.604C290.557 68.3514 462.857 115.948 581.026 254.909C699.196 393.871 718.489 571.58 624.116 651.832" stroke="#2F363D" stroke-width="0.5"/>
<path d="M262.77 104.633C350.502 60.8892 487.608 157.767 569.003 321.013C650.397 484.259 645.262 652.059 557.529 695.803" stroke="#2F363D" stroke-width="0.5"/>
<path d="M321.166 82.1403C384.25 64.4924 475.227 192.596 524.37 368.264C573.513 543.932 562.215 700.648 499.131 718.296" stroke="#2F363D" stroke-width="0.5"/>
<path d="M373.55 71.9623C401.888 68.8027 441.246 213.208 461.459 394.497C481.672 575.786 475.086 725.314 446.749 728.474" stroke="#2F363D" stroke-width="0.5"/>
<path d="M461.945 726.425C428.05 731.807 392.247 731.807 358.353 726.425" stroke="#2F363D" stroke-width="0.5"/>
<path d="M576.889 685.334C486.571 738.154 338.703 738.98 246.615 687.174C245.536 686.566 244.467 685.953 243.408 685.334" stroke="#2F363D" stroke-width="0.5"/>
<path d="M640.195 637.221C565.12 710.096 401.264 734.273 274.201 691.2C235.405 678.048 203.03 659.479 180.102 637.221" stroke="#2F363D" stroke-width="0.5"/>
<path d="M685.071 583.271C627.086 670.362 456.99 714.003 305.139 680.74C226.91 663.601 165.106 628.151 135.225 583.271" stroke="#2F363D" stroke-width="0.5"/>
<path d="M716.037 524.817C676.564 621.717 507.617 681.916 338.681 659.277C222.313 643.681 131.45 591.565 104.261 524.817" stroke="#2F363D" stroke-width="0.5"/>
<path d="M734.361 463.293C714.379 566 553.026 639.965 373.982 628.504C222.449 618.807 102.847 550.206 85.9365 463.293" stroke="#2F363D" stroke-width="0.5"/>
<path d="M740.438 400.218C740.438 504.847 592.561 589.669 410.148 589.669C227.736 589.669 79.8584 504.847 79.8584 400.218V400.218" stroke="#2F363D" stroke-width="0.5"/>
<path d="M734.361 337.143C754.343 439.846 625.385 532.397 446.328 543.858C267.271 555.319 105.931 481.35 85.9489 378.647C83.2657 364.855 83.2657 350.935 85.9489 337.143" stroke="#2F363D" stroke-width="0.5"/>
<path d="M716.036 275.62C755.499 372.52 650.553 469.424 481.616 492.065C312.68 514.703 143.73 454.504 104.26 357.604C93.2765 330.639 93.2765 302.584 104.26 275.62" stroke="#2F363D" stroke-width="0.5"/>
<path d="M685.072 217.165C743.047 304.256 666.978 401.82 515.144 435.08C363.307 468.34 193.211 424.702 135.212 337.612C109.389 298.829 109.389 255.947 135.212 217.165" stroke="#2F363D" stroke-width="0.5"/>
<path d="M640.195 163.215C715.273 236.09 673.138 330.078 546.085 373.141C419.033 416.204 255.176 392.036 180.091 319.162C130.541 271.065 130.541 211.312 180.091 163.215" stroke="#2F363D" stroke-width="0.5"/>
<path d="M576.888 115.105C667.206 167.925 665.769 252.744 573.681 304.546C481.593 356.352 333.726 355.527 243.408 302.707C154.329 250.61 154.329 167.202 243.408 115.105" stroke="#2F363D" stroke-width="0.5"/>
<path d="M461.944 74.0106C565.278 90.4188 625.857 151.771 597.25 211.041C568.644 270.312 461.686 305.062 358.352 288.653C255.017 272.245 194.439 210.893 223.045 151.622C241.245 113.913 292.611 84.4511 358.352 74.0106" stroke="#2F363D" stroke-width="0.5"/>
<path d="M560.096 159.149C560.096 206.652 492.961 245.16 410.147 245.16C327.334 245.16 260.199 206.652 260.199 159.149C260.199 111.647 327.334 73.1387 410.147 73.1387C492.961 73.1387 560.096 111.647 560.096 159.149Z" stroke="#2F363D" stroke-width="0.5"/>
<path d="M512.215 142.902C512.215 175.236 466.52 201.446 410.149 201.446C353.779 201.446 308.083 175.235 308.083 142.902C308.083 110.569 353.779 84.3586 410.149 84.3586C466.52 84.3586 512.215 110.57 512.215 142.902Z" stroke="#2F363D" stroke-width="0.5"/>
<path d="M461.815 132.991C461.815 149.36 438.682 162.63 410.148 162.63C381.612 162.63 358.48 149.36 358.48 132.991C358.48 116.621 381.613 103.351 410.148 103.351C438.683 103.351 461.815 116.621 461.815 132.991Z" stroke="#2F363D" stroke-width="0.5"/>
<path d="M740.438 400.218C740.438 582.63 592.561 730.508 410.148 730.508C227.736 730.508 79.8584 582.63 79.8584 400.218C79.8584 217.806 227.736 69.9282 410.148 69.9282C592.561 69.9282 740.438 217.806 740.438 400.218Z" stroke="#2F363D" stroke-width="0.5"/>
</svg>
